<svg id="Layer_1" data-name="Layer 1" xmlns="http://www.w3.org/2000/svg" viewBox="0 0 150.25 39.95"><defs><style>.cls-1{fill-rule:evenodd;}</style></defs><polygon class="cls-1" points="148.23 14.65 148.64 13.49 148.64 14.65 148.83 14.65 148.83 13.2 148.57 13.2 148.16 14.44 147.74 13.2 147.47 13.2 147.47 14.65 147.66 14.65 147.66 13.49 148.07 14.65 148.23 14.65"/><polygon class="cls-1" points="146.76 14.65 146.76 13.37 147.24 13.37 147.24 13.2 146.09 13.2 146.09 13.37 146.57 13.37 146.57 14.65 146.76 14.65"/><path class="cls-1" d="M138,30.43a6.39,6.39,0,0,1-3,.78,6.19,6.19,0,0,1-4.77-1.73,10.36,10.36,0,0,0,7-.05,8.51,8.51,0,0,0,3.16,1.09c1.28,0,3.28,0,3.21-2a66.21,66.21,0,0,1,0-7.58c.21-2.66.55-5.42-.33-7.23a3.84,3.84,0,0,1,1.78,3.66s-.26,5.37-.31,7.44a39.53,39.53,0,0,0,.17,4.25c0,.36.54,1.14-.15,1.69a5.43,5.43,0,0,1-5.27.26c-.52-.26-1.26-.81-1.59-.59Z"/><path class="cls-1" d="M131.87,17.38s-.76.05-1,.1-.5-.14,0-.5,3-2.26,4.26-2.26,1.61.81.85.76a8.17,8.17,0,0,0-3.3,1.62,1,1,0,0,1-.83.28Z"/><path class="cls-1" d="M122.43,31.23l-2.66.07c-.45,0-.68.08-1.06-.26s-1.31-1.16-1.31-1.16a19,19,0,0,0,2.37.26c.88,0,3.35.24,3.83-.9s.07-1.64,0-2.45,0-3.73.12-5.15.71-4.68-.83-7.18c0,0-.33-.88.28-.16a6.62,6.62,0,0,1,1.86,4.1c0,1.69-.07,6.11,0,7.3s1.34,5.53-2.59,5.53Z"/><path class="cls-1" d="M106.11,30.52s1.45.17,2.74.17,3.68.23,3.3-2.52a22.47,22.47,0,0,1-.38-4.21c0-.92.35-5.67,1.8-8.43,0,0,.6-.93,1.31-.4s0,.88-.16,1.28A26.2,26.2,0,0,0,113.27,24a19.09,19.09,0,0,0,.35,4.47,2.76,2.76,0,0,1-2.44,3.33c-2.83.47-4.26-.22-5.07-1.24Z"/><path class="cls-1" d="M106.33,29s-.83,0-.59-1.68a98.91,98.91,0,0,0-.15-13.85.9.9,0,0,1,.83-1.36c1.45-.14,2.5-.14,2.81-.14a1.22,1.22,0,0,1,1.3.78c.34.81.5.69,1.31.31a9,9,0,0,1,3.8-.8c1.78,0,6.84.16,6.87,6.05s-.41,7.46-.17,8.89-.33,1.49-1.19,1.52a20.69,20.69,0,0,1-3.39-.14c-.69-.17-.9-.43-.69-1.33a39.85,39.85,0,0,0,.24-9.89s-.36-3.66-2.67-3.66-3.51,2.5-3.82,5.63a52.23,52.23,0,0,0-.21,8.39s.42,1.35-.83,1.45a19.39,19.39,0,0,1-3.45-.17Z"/><path class="cls-1" d="M95.38,31.71s-4.68-.12-7-2.09a33.77,33.77,0,0,0,6.27.88c2.61,0,8.36-1.36,8.36-10.08A13.73,13.73,0,0,0,101.67,14s-.21-1.16.71.07a12.13,12.13,0,0,1,1.81,6.11c0,7.29-4.13,11.57-8.81,11.57Z"/><path class="cls-1" d="M71.81,28.24a13.15,13.15,0,0,0-1.33.14c-.21.05-.62-.07,0-.76s13.16-16.08,14-17.15S85.47,9,85,8,83.59,5.1,83.59,5.1a20.87,20.87,0,0,1,2.9,3.33c.38.9.5,1.28-.26,2.16S73.88,25.65,71.81,28.24Z"/><path class="cls-1" d="M82.91,30.5a2.49,2.49,0,0,1,1.14,2,3.31,3.31,0,0,1-3.35,2.92c-2.17,0-9,.76-10,1a5.84,5.84,0,0,1-4.42-.83s7-1.14,10.41-1.26,6.77-.14,6.18-3.75Z"/><path class="cls-1" d="M74.09,9.9,73,11.21s-2.85.4-3.42.4a6.42,6.42,0,0,1-2.42-.54c-.57-.31-.55-.5.28-.53,1.21,0,6.37-.61,6.65-.64Z"/><path class="cls-1" d="M76.37,8.93s.86-.67-.49-.6-8.44.6-9.15.72a2.37,2.37,0,0,1-2.54-.91c-.64-1.07-.57-1.87,1.28-2s12.85-1.5,14.18-1.74,1.71-.28,2.38.86a17.73,17.73,0,0,1,1.21,2.52A1.83,1.83,0,0,1,83,10c-1,1.28-13,16.25-14.08,17.46s-1.86,2.47.71,2.32,10-.28,10-.28,1.66-.33,1.64,1.28-1.14,1.81-2.4,1.85-10.59.93-12.37,1.31-2.62.41-3.76-.52-2.8-2.07-.95-4.49,13.78-18.79,14.63-20Z"/><path class="cls-1" d="M51.64,30a28.62,28.62,0,0,0,4.54.1c1.54-.17,2-.69,1.88-2.19A56,56,0,0,1,58.48,13a8,8,0,0,1,1,1.67,2.46,2.46,0,0,1,0,1.54,95.2,95.2,0,0,0-.05,12.52s.52,2-1.07,2.4-4.94.69-6.7-1.14Z"/><path class="cls-1" d="M50.62,13.25a1,1,0,0,1,.81-1.38,13.69,13.69,0,0,1,4.66.05c1,.31,1.11.71.9,2.09a95,95,0,0,0-.33,13.16s.61,1.57-1,1.57-2.73,0-3.16,0-1.45.22-1.23-1.88a53.35,53.35,0,0,0-.6-13.56Z"/><path class="cls-1" d="M51.9,8.43s2.38,1.33,4.19-.14,1.56-2.86,1.42-3.43a2.62,2.62,0,0,1,.26,3.76,3.83,3.83,0,0,1-5.87-.19Z"/><path class="cls-1" d="M53.47,7.74c-1.14,0-2.66-1-2.63-2.21s1.71-2.28,3-2.28a2.17,2.17,0,0,1,2.42,2.16c0,1.21-.74,2.28-2.76,2.33Z"/><path class="cls-1" d="M38.29,31.28a7.49,7.49,0,0,1-2.71-.81c-1-.64.43-.38,1.05-.33s4,.62,4-2.23a31.23,31.23,0,0,1,.62-8.65c.83-3.16,1.21-4,3.07-4.06s4.11-.07,3.63-2.52c0,0,1.5,1.71.71,2.8s-2.33.93-2.78.93a2.64,2.64,0,0,0-3,2.28A34.59,34.59,0,0,0,42,26.91c0,2.8.27,4.51-3.68,4.37Z"/><path class="cls-1" d="M33.52,12.37s-.64-1.11.95-1.3A17.75,17.75,0,0,1,38,11c.59.09,1,.16,1,.9s.5,1.38,1.73.45a4.84,4.84,0,0,1,5.2-.55s.91.86.57,1.36-.85.47-1.78.54-3.37,0-4,1.83S39.2,19.71,39.2,27.22c0,0,.35,1.45-1.07,1.5a8.89,8.89,0,0,1-2.92-.24c-.5-.19-.93-.19-.84-1.71s.07-11.43-.85-14.4Z"/><path class="cls-1" d="M28.77,31.09a4,4,0,0,1-3.5-1.21s2.62,0,3.66-.12,2.21-.66,1.48-2.45S29.15,24,29.15,24a4.83,4.83,0,0,0,1-3.52s2,.24.55,3.71c0,0,.86,2.56,1.07,3.13s1.09,3.78-3,3.78Z"/><path class="cls-1" d="M8,38.38l-2.43,0L2.85,37a32.88,32.88,0,0,0,4.39.17,3.08,3.08,0,0,0,2.9-2.48c.48-2.11,1.62-6.72,1.85-7.43s.6-.64,1-.64,7.07-.29,7.43-.36a.82.82,0,0,1,1.07.48c.12.52.36.83-.36.83s-7.12.45-7.12.45a.72.72,0,0,0-.88.59c-.26.81-1.4,5.3-1.59,6.16S10.71,38.36,8,38.38Z"/><path class="cls-1" d="M22.4,3l1.52,1.37A5.85,5.85,0,0,1,24.8,6.5s3.09,10,3.4,10.84-.31.59-.62.59-.69.14-.95-.74S22.85,4.94,22.4,3Z"/><path class="cls-1" d="M29.1,27.2l-1.43-3.95c.43-.19.79-1.14,1.12-2.71s-.78-1.26-1.73-1.11a.78.78,0,0,1-1-.72C25.44,17,21.5,5.2,21.24,3.94s-.62-1.57-1.4-1.74a44.82,44.82,0,0,0-5.21-.47c-.92.05-1,.64-1,.64s-.26,1-.31,1.35a1.38,1.38,0,0,1-.36.69c-.47.22-.64.62-.43,1a1.61,1.61,0,0,1,0,1c-1.42,6.43-8.78,25.18-8.78,25.18a13.66,13.66,0,0,1-1.48,3c-.52.64-.43,1,.26,1a15.83,15.83,0,0,0,4.61,0c2-.3,1.74-1.92,1.88-2.66s1.57-5.77,1.9-7,1.19-1,1.19-1,7.39-.37,9-.47,1.83,1,1.83,1,.48,1.15.9,1.93,1.14.85,3.66.85S29.1,27.2,29.1,27.2Zm-8.91-6.87s-6.17.78-6.65.78-.88,0-.57-1,3.14-8.79,3.35-9.53,1.21-1.16,1.47.05,2.45,8.05,2.66,8.7S20.67,20.23,20.19,20.33Z"/><path class="cls-1" d="M16.75,13.16s.4-.79.52.31a9.54,9.54,0,0,0,.26,1.68L15.8,19.6l-1.17.3s-.38.1-.05-.78,2-5.54,2.17-6Z"/><path class="cls-1" d="M100.89,15.55c-1-3.51-3.75-4.3-8.86-4.6s-6.13,3.44-6.75,8.5.74,6.75,2.26,8,5.82,1.57,5.82,1.57C102.91,29.79,102,19.1,100.89,15.55ZM93.43,27.74s-3.09.34-3.4-6.2,2-8.62,3.45-8.6,3.51,1.57,3.68,6.58S95.88,27.74,93.43,27.74Z"/><path class="cls-1" d="M93.38,25.46s.26,1.12-.59.83-1.31-2.61-1.36-4.56.07-6.53,1.95-7.6a1.23,1.23,0,0,1,1.16.24c.43.47.5.73-.07.92s-1.64.93-1.78,4.47a14.6,14.6,0,0,0,.69,5.7Z"/><path class="cls-1" d="M138.73,11.92a23.91,23.91,0,0,0-4.42-.81c-1.95,0-4.72,2.31-6,3.54s-.54,2-.54,2c.69,1.14,1.47.4,2-.1,3.56-3.35,5.58-3.44,6.58-3.11s1.73,1.8,1.66,3.4-1.76,1.23-1.76,1.23c-4.06-.19-7.55,1-9.24,3.18s.71,4.83,1.92,5.85a7.62,7.62,0,0,0,4.85,1.42,7.93,7.93,0,0,0,3.61-.85A5.32,5.32,0,0,0,139,28.76a6.23,6.23,0,0,0,2.42.17c.64,0,1-.31,1-1.62s.15-5.72.34-10S139.75,12.06,138.73,11.92Zm-3,13.3a11.85,11.85,0,0,1-4.2.07s-1.71-.42-1.71-1.4,1.21-1.56,3.06-2.14,5.06-1.44,4.87.53S137,25,135.76,25.22Z"/><path class="cls-1" d="M132,24.11s-.55-.22,0-.52a8.55,8.55,0,0,1,4.11-1.07s.57-.05.47.45-.19.57-.54.54a8.78,8.78,0,0,0-2.19.53,1.21,1.21,0,0,1-.69.28,2.73,2.73,0,0,1-1.16-.21Z"/></svg>