<svg id="Layer_1" data-name="Layer 1" xmlns="http://www.w3.org/2000/svg" viewBox="0 0 1080 1080"><defs><style>.cls-1{fill:#f0868c;}.cls-2{fill:#f6a1a6;}.cls-3{fill:#fef3f3;}.cls-4{fill:#f9c0c3;}.cls-5{fill:#fdeced;}.cls-6{fill:#fce0e1;}</style></defs><path class="cls-1" d="M1035.26,487C1008.79,236.85,797.16,42,540,42S71.21,236.85,44.74,487Z"/><path class="cls-2" d="M42,540q0,16.83,1.11,33.4h993.88q1.1-16.56,1.11-33.4,0-24.74-2.38-48.88H44.33Q42,515.26,42,540Z"/><path class="cls-3" d="M188.25,892.6Q202,906.36,216.87,919H863.13q14.82-12.64,28.62-26.4Z"/><path class="cls-4" d="M43.76,582.65a495.94,495.94,0,0,0,12.7,77.15h967.08a495.94,495.94,0,0,0,12.7-77.15Z"/><path class="cls-5" d="M101.69,776.7a497.37,497.37,0,0,0,35.23,55.9H943.08a497.37,497.37,0,0,0,35.23-55.9Z"/><path class="cls-6" d="M60.14,673.8a494.31,494.31,0,0,0,26.37,72.4h907a494.31,494.31,0,0,0,26.37-72.4Z"/></svg>